<?xml version="1.0" encoding="UTF-8" standalone="no"?>
<!DOCTYPE svg PUBLIC "-//W3C//DTD SVG 1.1//EN"
 "http://www.w3.org/Graphics/SVG/1.1/DTD/svg11.dtd">
<!-- Generated by graphviz version 2.43.0 (0)
 -->
<!-- Title: snakemake_dag Pages: 1 -->
<svg width="571pt" height="337pt"
 viewBox="0.00 0.00 570.70 337.00" xmlns="http://www.w3.org/2000/svg" xmlns:xlink="http://www.w3.org/1999/xlink">
<g id="graph0" class="graph" transform="scale(1 1) rotate(0) translate(4 333)">
<title>snakemake_dag</title>
<polygon fill="white" stroke="transparent" points="-4,4 -4,-333 566.7,-333 566.7,4 -4,4"/>
<!-- 0 -->
<g id="node1" class="node">
<title>0</title>
<path fill="none" stroke="#d89556" stroke-width="2" stroke-dasharray="5,2" d="M302.51,-36C302.51,-36 272.51,-36 272.51,-36 266.51,-36 260.51,-30 260.51,-24 260.51,-24 260.51,-12 260.51,-12 260.51,-6 266.51,0 272.51,0 272.51,0 302.51,0 302.51,0 308.51,0 314.51,-6 314.51,-12 314.51,-12 314.51,-24 314.51,-24 314.51,-30 308.51,-36 302.51,-36"/>
<text text-anchor="middle" x="287.51" y="-15.5" font-family="sans" font-size="10.00">all</text>
</g>
<!-- 1 -->
<g id="node2" class="node">
<title>1</title>
<path fill="none" stroke="#56d89a" stroke-width="2" stroke-dasharray="5,2" d="M267.01,-108C267.01,-108 214.01,-108 214.01,-108 208.01,-108 202.01,-102 202.01,-96 202.01,-96 202.01,-84 202.01,-84 202.01,-78 208.01,-72 214.01,-72 214.01,-72 267.01,-72 267.01,-72 273.01,-72 279.01,-78 279.01,-84 279.01,-84 279.01,-96 279.01,-96 279.01,-102 273.01,-108 267.01,-108"/>
<text text-anchor="middle" x="240.51" y="-87.5" font-family="sans" font-size="10.00">starMapping</text>
</g>
<!-- 1&#45;&gt;0 -->
<g id="edge1" class="edge">
<title>1&#45;&gt;0</title>
<path fill="none" stroke="grey" stroke-width="2" d="M252.13,-71.7C257.65,-63.47 264.36,-53.48 270.44,-44.42"/>
<polygon fill="grey" stroke="grey" stroke-width="2" points="273.36,-46.36 276.03,-36.1 267.55,-42.46 273.36,-46.36"/>
</g>
<!-- 2 -->
<g id="node3" class="node">
<title>2</title>
<path fill="none" stroke="#59d856" stroke-width="2" stroke-dasharray="5,2" d="M531.01,-180C531.01,-180 478.01,-180 478.01,-180 472.01,-180 466.01,-174 466.01,-168 466.01,-168 466.01,-156 466.01,-156 466.01,-150 472.01,-144 478.01,-144 478.01,-144 531.01,-144 531.01,-144 537.01,-144 543.01,-150 543.01,-156 543.01,-156 543.01,-168 543.01,-168 543.01,-174 537.01,-180 531.01,-180"/>
<text text-anchor="middle" x="504.51" y="-159.5" font-family="sans" font-size="10.00">starIndexing</text>
</g>
<!-- 2&#45;&gt;1 -->
<g id="edge3" class="edge">
<title>2&#45;&gt;1</title>
<path fill="none" stroke="grey" stroke-width="2" d="M465.88,-146.83C462.73,-145.83 459.58,-144.87 456.51,-144 386.05,-124.06 363.8,-128.38 289.04,-107.93"/>
<polygon fill="grey" stroke="grey" stroke-width="2" points="289.72,-104.49 279.15,-105.17 287.84,-111.23 289.72,-104.49"/>
</g>
<!-- 13 -->
<g id="node14" class="node">
<title>13</title>
<path fill="none" stroke="#56d89a" stroke-width="2" stroke-dasharray="5,2" d="M362.01,-108C362.01,-108 309.01,-108 309.01,-108 303.01,-108 297.01,-102 297.01,-96 297.01,-96 297.01,-84 297.01,-84 297.01,-78 303.01,-72 309.01,-72 309.01,-72 362.01,-72 362.01,-72 368.01,-72 374.01,-78 374.01,-84 374.01,-84 374.01,-96 374.01,-96 374.01,-102 368.01,-108 362.01,-108"/>
<text text-anchor="middle" x="335.51" y="-87.5" font-family="sans" font-size="10.00">starMapping</text>
</g>
<!-- 2&#45;&gt;13 -->
<g id="edge21" class="edge">
<title>2&#45;&gt;13</title>
<path fill="none" stroke="grey" stroke-width="2" d="M465.74,-144.94C441.27,-134.8 409.47,-121.63 383.42,-110.84"/>
<polygon fill="grey" stroke="grey" stroke-width="2" points="384.68,-107.58 374.1,-106.98 382,-114.05 384.68,-107.58"/>
</g>
<!-- 3 -->
<g id="node4" class="node">
<title>3</title>
<path fill="none" stroke="#569ad8" stroke-width="2" stroke-dasharray="5,2" d="M194.51,-252C194.51,-252 158.51,-252 158.51,-252 152.51,-252 146.51,-246 146.51,-240 146.51,-240 146.51,-228 146.51,-228 146.51,-222 152.51,-216 158.51,-216 158.51,-216 194.51,-216 194.51,-216 200.51,-216 206.51,-222 206.51,-228 206.51,-228 206.51,-240 206.51,-240 206.51,-246 200.51,-252 194.51,-252"/>
<text text-anchor="middle" x="176.51" y="-231.5" font-family="sans" font-size="10.00">cutAdapt</text>
</g>
<!-- 3&#45;&gt;1 -->
<g id="edge4" class="edge">
<title>3&#45;&gt;1</title>
<path fill="none" stroke="grey" stroke-width="2" d="M146.51,-228.96C88.09,-219.88 -31.82,-194.58 8.51,-144 30.97,-115.83 130.51,-101.44 191.68,-95.13"/>
<polygon fill="grey" stroke="grey" stroke-width="2" points="192.29,-98.59 201.89,-94.12 191.59,-91.63 192.29,-98.59"/>
</g>
<!-- 8 -->
<g id="node9" class="node">
<title>8</title>
<path fill="none" stroke="#97d856" stroke-width="2" stroke-dasharray="5,2" d="M211.51,-180C211.51,-180 141.51,-180 141.51,-180 135.51,-180 129.51,-174 129.51,-168 129.51,-168 129.51,-156 129.51,-156 129.51,-150 135.51,-144 141.51,-144 141.51,-144 211.51,-144 211.51,-144 217.51,-144 223.51,-150 223.51,-156 223.51,-156 223.51,-168 223.51,-168 223.51,-174 217.51,-180 211.51,-180"/>
<text text-anchor="middle" x="176.51" y="-165" font-family="sans" font-size="10.00">trimmed_fastqc</text>
<text text-anchor="middle" x="176.51" y="-154" font-family="sans" font-size="10.00">read: R1</text>
</g>
<!-- 3&#45;&gt;8 -->
<g id="edge13" class="edge">
<title>3&#45;&gt;8</title>
<path fill="none" stroke="grey" stroke-width="2" d="M176.51,-215.7C176.51,-207.98 176.51,-198.71 176.51,-190.11"/>
<polygon fill="grey" stroke="grey" stroke-width="2" points="180.01,-190.1 176.51,-180.1 173.01,-190.1 180.01,-190.1"/>
</g>
<!-- 9 -->
<g id="node10" class="node">
<title>9</title>
<path fill="none" stroke="#97d856" stroke-width="2" stroke-dasharray="5,2" d="M99.51,-180C99.51,-180 29.51,-180 29.51,-180 23.51,-180 17.51,-174 17.51,-168 17.51,-168 17.51,-156 17.51,-156 17.51,-150 23.51,-144 29.51,-144 29.51,-144 99.51,-144 99.51,-144 105.51,-144 111.51,-150 111.51,-156 111.51,-156 111.51,-168 111.51,-168 111.51,-174 105.51,-180 99.51,-180"/>
<text text-anchor="middle" x="64.51" y="-165" font-family="sans" font-size="10.00">trimmed_fastqc</text>
<text text-anchor="middle" x="64.51" y="-154" font-family="sans" font-size="10.00">read: R2</text>
</g>
<!-- 3&#45;&gt;9 -->
<g id="edge14" class="edge">
<title>3&#45;&gt;9</title>
<path fill="none" stroke="grey" stroke-width="2" d="M149.11,-215.88C134.61,-206.81 116.6,-195.55 100.93,-185.76"/>
<polygon fill="grey" stroke="grey" stroke-width="2" points="102.35,-182.52 92.02,-180.19 98.64,-188.46 102.35,-182.52"/>
</g>
<!-- 4 -->
<g id="node5" class="node">
<title>4</title>
<path fill="none" stroke="#d6d856" stroke-width="2" stroke-dasharray="5,2" d="M318.51,-329C318.51,-329 250.51,-329 250.51,-329 244.51,-329 238.51,-323 238.51,-317 238.51,-317 238.51,-300 238.51,-300 238.51,-294 244.51,-288 250.51,-288 250.51,-288 318.51,-288 318.51,-288 324.51,-288 330.51,-294 330.51,-300 330.51,-300 330.51,-317 330.51,-317 330.51,-323 324.51,-329 318.51,-329"/>
<text text-anchor="middle" x="284.51" y="-317" font-family="sans" font-size="10.00">fastQC</text>
<text text-anchor="middle" x="284.51" y="-306" font-family="sans" font-size="10.00">read: R1</text>
<text text-anchor="middle" x="284.51" y="-295" font-family="sans" font-size="10.00">sample: control</text>
</g>
<!-- 4&#45;&gt;3 -->
<g id="edge9" class="edge">
<title>4&#45;&gt;3</title>
<path fill="none" stroke="grey" stroke-width="2" d="M255.29,-287.88C241.53,-278.64 225.02,-267.57 210.69,-257.94"/>
<polygon fill="grey" stroke="grey" stroke-width="2" points="212.34,-254.83 202.09,-252.17 208.44,-260.65 212.34,-254.83"/>
</g>
<!-- 11 -->
<g id="node12" class="node">
<title>11</title>
<path fill="none" stroke="#569ad8" stroke-width="2" stroke-dasharray="5,2" d="M306.51,-252C306.51,-252 270.51,-252 270.51,-252 264.51,-252 258.51,-246 258.51,-240 258.51,-240 258.51,-228 258.51,-228 258.51,-222 264.51,-216 270.51,-216 270.51,-216 306.51,-216 306.51,-216 312.51,-216 318.51,-222 318.51,-228 318.51,-228 318.51,-240 318.51,-240 318.51,-246 312.51,-252 306.51,-252"/>
<text text-anchor="middle" x="288.51" y="-231.5" font-family="sans" font-size="10.00">cutAdapt</text>
</g>
<!-- 4&#45;&gt;11 -->
<g id="edge16" class="edge">
<title>4&#45;&gt;11</title>
<path fill="none" stroke="grey" stroke-width="2" d="M285.61,-287.69C286.04,-279.91 286.54,-270.84 287,-262.45"/>
<polygon fill="grey" stroke="grey" stroke-width="2" points="290.5,-262.5 287.56,-252.32 283.51,-262.11 290.5,-262.5"/>
</g>
<!-- 5 -->
<g id="node6" class="node">
<title>5</title>
<path fill="none" stroke="#d6d856" stroke-width="2" stroke-dasharray="5,2" d="M428.51,-329C428.51,-329 360.51,-329 360.51,-329 354.51,-329 348.51,-323 348.51,-317 348.51,-317 348.51,-300 348.51,-300 348.51,-294 354.51,-288 360.51,-288 360.51,-288 428.51,-288 428.51,-288 434.51,-288 440.51,-294 440.51,-300 440.51,-300 440.51,-317 440.51,-317 440.51,-323 434.51,-329 428.51,-329"/>
<text text-anchor="middle" x="394.51" y="-317" font-family="sans" font-size="10.00">fastQC</text>
<text text-anchor="middle" x="394.51" y="-306" font-family="sans" font-size="10.00">read: R2</text>
<text text-anchor="middle" x="394.51" y="-295" font-family="sans" font-size="10.00">sample: control</text>
</g>
<!-- 5&#45;&gt;3 -->
<g id="edge10" class="edge">
<title>5&#45;&gt;3</title>
<path fill="none" stroke="grey" stroke-width="2" d="M348.33,-291.03C345.35,-289.99 342.39,-288.98 339.51,-288 297.64,-273.77 249.45,-258.2 216.38,-247.64"/>
<polygon fill="grey" stroke="grey" stroke-width="2" points="217.22,-244.24 206.63,-244.53 215.1,-250.9 217.22,-244.24"/>
</g>
<!-- 5&#45;&gt;11 -->
<g id="edge17" class="edge">
<title>5&#45;&gt;11</title>
<path fill="none" stroke="grey" stroke-width="2" d="M365.83,-287.88C352.32,-278.64 336.13,-267.57 322.06,-257.94"/>
<polygon fill="grey" stroke="grey" stroke-width="2" points="323.84,-254.92 313.61,-252.17 319.89,-260.7 323.84,-254.92"/>
</g>
<!-- 6 -->
<g id="node7" class="node">
<title>6</title>
<path fill="none" stroke="#d6d856" stroke-width="2" stroke-dasharray="5,2" d="M110.51,-329C110.51,-329 54.51,-329 54.51,-329 48.51,-329 42.51,-323 42.51,-317 42.51,-317 42.51,-300 42.51,-300 42.51,-294 48.51,-288 54.51,-288 54.51,-288 110.51,-288 110.51,-288 116.51,-288 122.51,-294 122.51,-300 122.51,-300 122.51,-317 122.51,-317 122.51,-323 116.51,-329 110.51,-329"/>
<text text-anchor="middle" x="82.51" y="-317" font-family="sans" font-size="10.00">fastQC</text>
<text text-anchor="middle" x="82.51" y="-306" font-family="sans" font-size="10.00">read: R1</text>
<text text-anchor="middle" x="82.51" y="-295" font-family="sans" font-size="10.00">sample: drug</text>
</g>
<!-- 6&#45;&gt;3 -->
<g id="edge11" class="edge">
<title>6&#45;&gt;3</title>
<path fill="none" stroke="grey" stroke-width="2" d="M108.2,-287.69C119.95,-278.63 133.95,-267.83 146.21,-258.37"/>
<polygon fill="grey" stroke="grey" stroke-width="2" points="148.59,-260.96 154.37,-252.08 144.31,-255.41 148.59,-260.96"/>
</g>
<!-- 6&#45;&gt;11 -->
<g id="edge18" class="edge">
<title>6&#45;&gt;11</title>
<path fill="none" stroke="grey" stroke-width="2" d="M122.56,-291.36C125.58,-290.21 128.59,-289.07 131.51,-288 170.99,-273.49 216.57,-258.27 248.42,-247.88"/>
<polygon fill="grey" stroke="grey" stroke-width="2" points="249.82,-251.11 258.25,-244.69 247.66,-244.45 249.82,-251.11"/>
</g>
<!-- 7 -->
<g id="node8" class="node">
<title>7</title>
<path fill="none" stroke="#d6d856" stroke-width="2" stroke-dasharray="5,2" d="M208.51,-329C208.51,-329 152.51,-329 152.51,-329 146.51,-329 140.51,-323 140.51,-317 140.51,-317 140.51,-300 140.51,-300 140.51,-294 146.51,-288 152.51,-288 152.51,-288 208.51,-288 208.51,-288 214.51,-288 220.51,-294 220.51,-300 220.51,-300 220.51,-317 220.51,-317 220.51,-323 214.51,-329 208.51,-329"/>
<text text-anchor="middle" x="180.51" y="-317" font-family="sans" font-size="10.00">fastQC</text>
<text text-anchor="middle" x="180.51" y="-306" font-family="sans" font-size="10.00">read: R2</text>
<text text-anchor="middle" x="180.51" y="-295" font-family="sans" font-size="10.00">sample: drug</text>
</g>
<!-- 7&#45;&gt;3 -->
<g id="edge12" class="edge">
<title>7&#45;&gt;3</title>
<path fill="none" stroke="grey" stroke-width="2" d="M179.42,-287.69C178.99,-279.91 178.49,-270.84 178.03,-262.45"/>
<polygon fill="grey" stroke="grey" stroke-width="2" points="181.51,-262.11 177.47,-252.32 174.52,-262.5 181.51,-262.11"/>
</g>
<!-- 7&#45;&gt;11 -->
<g id="edge19" class="edge">
<title>7&#45;&gt;11</title>
<path fill="none" stroke="grey" stroke-width="2" d="M209.74,-287.88C223.5,-278.64 240,-267.57 254.34,-257.94"/>
<polygon fill="grey" stroke="grey" stroke-width="2" points="256.59,-260.65 262.94,-252.17 252.69,-254.83 256.59,-260.65"/>
</g>
<!-- 8&#45;&gt;1 -->
<g id="edge5" class="edge">
<title>8&#45;&gt;1</title>
<path fill="none" stroke="grey" stroke-width="2" d="M192.33,-143.7C200.08,-135.22 209.55,-124.86 218.04,-115.58"/>
<polygon fill="grey" stroke="grey" stroke-width="2" points="220.71,-117.85 224.87,-108.1 215.54,-113.12 220.71,-117.85"/>
</g>
<!-- 8&#45;&gt;13 -->
<g id="edge23" class="edge">
<title>8&#45;&gt;13</title>
<path fill="none" stroke="grey" stroke-width="2" d="M215.41,-143.88C237.15,-134.31 264.42,-122.3 287.48,-112.15"/>
<polygon fill="grey" stroke="grey" stroke-width="2" points="289,-115.3 296.74,-108.07 286.18,-108.89 289,-115.3"/>
</g>
<!-- 9&#45;&gt;1 -->
<g id="edge6" class="edge">
<title>9&#45;&gt;1</title>
<path fill="none" stroke="grey" stroke-width="2" d="M107.57,-143.88C133.22,-133.67 165.83,-120.7 192.34,-110.16"/>
<polygon fill="grey" stroke="grey" stroke-width="2" points="193.8,-113.34 201.8,-106.4 191.22,-106.84 193.8,-113.34"/>
</g>
<!-- 9&#45;&gt;13 -->
<g id="edge24" class="edge">
<title>9&#45;&gt;13</title>
<path fill="none" stroke="grey" stroke-width="2" d="M111.79,-146.34C114.74,-145.53 117.66,-144.74 120.51,-144 191.41,-125.68 213.32,-128.73 287.15,-108.2"/>
<polygon fill="grey" stroke="grey" stroke-width="2" points="288.25,-111.52 296.92,-105.43 286.35,-104.79 288.25,-111.52"/>
</g>
<!-- 10 -->
<g id="node11" class="node">
<title>10</title>
<path fill="none" stroke="#97d856" stroke-width="2" stroke-dasharray="5,2" d="M435.51,-180C435.51,-180 365.51,-180 365.51,-180 359.51,-180 353.51,-174 353.51,-168 353.51,-168 353.51,-156 353.51,-156 353.51,-150 359.51,-144 365.51,-144 365.51,-144 435.51,-144 435.51,-144 441.51,-144 447.51,-150 447.51,-156 447.51,-156 447.51,-168 447.51,-168 447.51,-174 441.51,-180 435.51,-180"/>
<text text-anchor="middle" x="400.51" y="-165" font-family="sans" font-size="10.00">trimmed_fastqc</text>
<text text-anchor="middle" x="400.51" y="-154" font-family="sans" font-size="10.00">read: R1</text>
</g>
<!-- 10&#45;&gt;1 -->
<g id="edge7" class="edge">
<title>10&#45;&gt;1</title>
<path fill="none" stroke="grey" stroke-width="2" d="M361.37,-143.88C339.42,-134.27 311.85,-122.21 288.59,-112.03"/>
<polygon fill="grey" stroke="grey" stroke-width="2" points="289.81,-108.75 279.25,-107.95 287.01,-115.16 289.81,-108.75"/>
</g>
<!-- 10&#45;&gt;13 -->
<g id="edge25" class="edge">
<title>10&#45;&gt;13</title>
<path fill="none" stroke="grey" stroke-width="2" d="M384.45,-143.7C376.57,-135.22 366.96,-124.86 358.34,-115.58"/>
<polygon fill="grey" stroke="grey" stroke-width="2" points="360.76,-113.05 351.4,-108.1 355.64,-117.81 360.76,-113.05"/>
</g>
<!-- 11&#45;&gt;10 -->
<g id="edge15" class="edge">
<title>11&#45;&gt;10</title>
<path fill="none" stroke="grey" stroke-width="2" d="M315.91,-215.88C330.42,-206.81 348.43,-195.55 364.1,-185.76"/>
<polygon fill="grey" stroke="grey" stroke-width="2" points="366.38,-188.46 373.01,-180.19 362.67,-182.52 366.38,-188.46"/>
</g>
<!-- 12 -->
<g id="node13" class="node">
<title>12</title>
<path fill="none" stroke="#97d856" stroke-width="2" stroke-dasharray="5,2" d="M323.51,-180C323.51,-180 253.51,-180 253.51,-180 247.51,-180 241.51,-174 241.51,-168 241.51,-168 241.51,-156 241.51,-156 241.51,-150 247.51,-144 253.51,-144 253.51,-144 323.51,-144 323.51,-144 329.51,-144 335.51,-150 335.51,-156 335.51,-156 335.51,-168 335.51,-168 335.51,-174 329.51,-180 323.51,-180"/>
<text text-anchor="middle" x="288.51" y="-165" font-family="sans" font-size="10.00">trimmed_fastqc</text>
<text text-anchor="middle" x="288.51" y="-154" font-family="sans" font-size="10.00">read: R2</text>
</g>
<!-- 11&#45;&gt;12 -->
<g id="edge20" class="edge">
<title>11&#45;&gt;12</title>
<path fill="none" stroke="grey" stroke-width="2" d="M288.51,-215.7C288.51,-207.98 288.51,-198.71 288.51,-190.11"/>
<polygon fill="grey" stroke="grey" stroke-width="2" points="292.01,-190.1 288.51,-180.1 285.01,-190.1 292.01,-190.1"/>
</g>
<!-- 11&#45;&gt;13 -->
<g id="edge22" class="edge">
<title>11&#45;&gt;13</title>
<path fill="none" stroke="grey" stroke-width="2" d="M318.99,-231.56C382.01,-227.87 523.26,-215.71 552.51,-180 600.92,-120.91 461.88,-100.63 384.1,-94.01"/>
<polygon fill="grey" stroke="grey" stroke-width="2" points="384.27,-90.51 374.02,-93.2 383.71,-97.49 384.27,-90.51"/>
</g>
<!-- 12&#45;&gt;1 -->
<g id="edge8" class="edge">
<title>12&#45;&gt;1</title>
<path fill="none" stroke="grey" stroke-width="2" d="M276.65,-143.7C271.01,-135.47 264.16,-125.48 257.94,-116.42"/>
<polygon fill="grey" stroke="grey" stroke-width="2" points="260.78,-114.37 252.24,-108.1 255.01,-118.33 260.78,-114.37"/>
</g>
<!-- 12&#45;&gt;13 -->
<g id="edge26" class="edge">
<title>12&#45;&gt;13</title>
<path fill="none" stroke="grey" stroke-width="2" d="M300.13,-143.7C305.65,-135.47 312.36,-125.48 318.44,-116.42"/>
<polygon fill="grey" stroke="grey" stroke-width="2" points="321.36,-118.36 324.03,-108.1 315.55,-114.46 321.36,-118.36"/>
</g>
<!-- 13&#45;&gt;0 -->
<g id="edge2" class="edge">
<title>13&#45;&gt;0</title>
<path fill="none" stroke="grey" stroke-width="2" d="M323.65,-71.7C318.01,-63.47 311.16,-53.48 304.94,-44.42"/>
<polygon fill="grey" stroke="grey" stroke-width="2" points="307.78,-42.37 299.24,-36.1 302.01,-46.33 307.78,-42.37"/>
</g>
</g>
</svg>
